<?xml version="1.0" encoding="utf-8"?>
<svg viewBox="192.7682 248.0218 41.9999 41.9998" xmlns="http://www.w3.org/2000/svg">
  <path d="M259,507.2C120.4,507.9,6.7,392.7,9.9,252.1c3-134,114.1-245,252.4-243.4c136.6,1.6,249.4,115.4,245.8,256   C504.7,398.1,394.7,507.8,259,507.2z M40.2,258.2C41.3,383.5,142.6,479.8,262.4,478c116.2-1.8,215.2-96.4,215.3-220   c0-125.2-102.1-222-222.2-220C139.1,39.9,41,134.7,40.2,258.2z" style="fill: rgb(34, 119, 204);" transform="matrix(0.08427800983190536, 0, 0, 0.08424901217222214, 191.93936157226562, 247.29029846191406)"/>
  <text style="fill: rgb(34, 119, 204); font-family: Arial, sans-serif; font-size: 29px; font-weight: 700; white-space: pre;" transform="matrix(0.6891621874345191, 0, 0, 0.7503223567446042, 199.96835753662612, 276.91715469745395)">CV</text>
</svg>