<?xml version="1.0" encoding="utf-8"?>
<svg viewBox="218.175 217.108 42 42" width="42" height="42" xmlns="http://www.w3.org/2000/svg">
  <path id="XMLID_1666_" d="M 239.175 217.108 C 227.579 217.108 218.175 226.512 218.175 238.108 C 218.175 249.704 227.579 259.108 239.175 259.108 C 250.77 259.108 260.175 249.704 260.175 238.108 C 260.175 226.512 250.77 217.108 239.175 217.108 Z M 240.863 255.365 C 240.772 255.365 240.682 255.365 240.544 255.41 L 240.544 245.504 C 242.918 245.458 245.063 245.412 247.027 245.275 C 245.292 250.617 242.051 254.178 240.863 255.365 Z M 237.486 255.365 C 236.253 254.132 233.058 250.571 231.322 245.275 C 233.24 245.412 235.432 245.504 237.805 245.504 L 237.805 255.41 C 237.713 255.41 237.622 255.365 237.486 255.365 Z M 221.827 238.108 C 221.827 236.967 221.963 235.825 222.146 234.73 C 223.151 234.547 225.068 234.273 227.761 233.999 C 227.534 235.323 227.396 236.693 227.396 238.154 C 227.396 239.615 227.534 240.984 227.716 242.262 C 225.068 241.988 223.105 241.715 222.101 241.532 C 221.963 240.391 221.827 239.249 221.827 238.108 Z M 230.182 238.108 C 230.182 236.556 230.363 235.095 230.637 233.725 C 232.737 233.588 235.111 233.451 237.805 233.451 L 237.805 242.765 C 235.158 242.719 232.737 242.628 230.592 242.445 C 230.363 241.121 230.182 239.66 230.182 238.108 Z M 240.818 220.851 C 242.051 222.084 245.201 225.736 246.982 230.941 C 245.063 230.804 242.918 230.712 240.544 230.712 L 240.544 220.806 C 240.636 220.806 240.727 220.851 240.818 220.851 Z M 237.805 220.806 L 237.805 230.712 C 235.432 230.758 233.286 230.804 231.368 230.941 C 233.103 225.736 236.299 222.084 237.486 220.851 C 237.622 220.851 237.713 220.806 237.805 220.806 Z M 240.544 242.765 L 240.544 233.451 C 243.192 233.497 245.611 233.588 247.711 233.725 C 247.986 235.095 248.168 236.556 248.168 238.108 C 248.168 239.66 248.032 241.121 247.758 242.491 C 245.658 242.628 243.237 242.719 240.544 242.765 Z M 250.542 233.999 C 253.236 234.273 255.153 234.547 256.158 234.73 C 256.386 235.825 256.522 236.967 256.522 238.108 C 256.522 239.249 256.386 240.391 256.203 241.486 C 255.199 241.669 253.282 241.943 250.587 242.217 C 250.816 240.893 250.908 239.523 250.908 238.062 C 250.908 236.693 250.77 235.278 250.542 233.999 Z M 255.336 231.808 C 254.058 231.625 252.232 231.397 249.903 231.169 C 248.808 227.243 246.89 224.093 245.292 221.856 C 249.903 223.591 253.555 227.243 255.336 231.808 Z M 233.058 221.856 C 231.413 224.047 229.542 227.197 228.446 231.123 C 226.163 231.306 224.337 231.58 223.013 231.762 C 224.794 227.243 228.492 223.591 233.058 221.856 Z M 223.013 244.408 C 224.292 244.591 226.118 244.819 228.401 245.047 C 229.496 248.973 231.322 252.123 232.966 254.315 C 228.401 252.534 224.794 248.928 223.013 244.408 Z M 245.384 254.315 C 247.027 252.123 248.853 249.019 249.949 245.093 C 252.232 244.91 254.058 244.636 255.336 244.454 C 253.555 248.928 249.949 252.534 245.384 254.315 Z" style="fill: rgb(42, 145, 207);"/>
</svg>