<?xml version="1.0" encoding="utf-8"?>
<svg viewBox="272.583 163.085 42 42" width="42" height="42" xmlns="http://www.w3.org/2000/svg">
  <g transform="matrix(0.090603, 0, 0, -0.090576, 271.536469, 205.717941)" fill="#000000" stroke="none">
    <path d="M162 457 c-149 -55 -200 -252 -95 -368 51 -56 104 -81 173 -82 108 -1 195 65 226 171 52 177 -128 342 -304 279z m179 -40 c125 -66 141 -249 28 -338 -19 -15 -46 -31 -61 -34 -27 -7 -28 -6 -28 31 1 33 6 42 33 59 30 19 32 24 30 70 -4 100 -7 112 -28 95 -19 -16 -104 -17 -132 -2 -22 12 -23 11 -40 -86 -6 -37 15 -77 47 -87 11 -3 20 -13 20 -21 0 -21 -44 -17 -65 6 -27 30 -31 16 -5 -19 14 -20 30 -31 46 -31 13 0 24 -4 24 -10 0 -27 -70 2 -111 47 -98 105 -71 259 56 326 46 25 133 22 186 -6z" style="fill: rgb(34, 119, 204);"/>
  </g>
</svg>